<svg width="77" height="17" viewBox="0 0 77 17" fill="none" xmlns="http://www.w3.org/2000/svg">
<path d="M4.08558 16H0.515507L5.95526 0.242424H10.2486L15.6806 16H12.1106L8.16347 3.84328H8.04036L4.08558 16ZM3.86245 9.80623H12.2952V12.4068H3.86245V9.80623ZM17.5772 16V0.242424H23.8864C25.0457 0.242424 26.0126 0.41426 26.7871 0.757931C27.5617 1.1016 28.1438 1.57864 28.5337 2.18904C28.9235 2.79431 29.1184 3.49191 29.1184 4.28184C29.1184 4.89737 28.9953 5.43853 28.7491 5.9053C28.5029 6.36695 28.1644 6.74653 27.7335 7.04403C27.3077 7.33641 26.8205 7.54415 26.2716 7.66726V7.82114C26.8717 7.84679 27.4334 8.01606 27.9566 8.32895C28.4849 8.64185 28.9133 9.08041 29.2415 9.64465C29.5698 10.2038 29.734 10.8706 29.734 11.6451C29.734 12.4812 29.5262 13.2275 29.1107 13.8841C28.7004 14.5356 28.0925 15.0511 27.2872 15.4306C26.4819 15.8102 25.4894 16 24.3096 16H17.5772ZM20.9088 13.2763H23.6248C24.5532 13.2763 25.2303 13.0993 25.6561 12.7454C26.0818 12.3863 26.2947 11.9093 26.2947 11.3143C26.2947 10.8783 26.1895 10.4936 25.9792 10.1602C25.7689 9.82674 25.4688 9.56514 25.079 9.37536C24.6943 9.18557 24.2352 9.09067 23.7018 9.09067H20.9088V13.2763ZM20.9088 6.83629H23.3786C23.8351 6.83629 24.2404 6.75679 24.5943 6.59777C24.9533 6.43363 25.2355 6.20281 25.4406 5.9053C25.6509 5.6078 25.7561 5.2513 25.7561 4.83582C25.7561 4.26645 25.5535 3.80737 25.1483 3.45857C24.7482 3.10977 24.1788 2.93537 23.4402 2.93537H20.9088V6.83629ZM46.3821 8.12121C46.3821 9.83957 46.0564 11.3015 45.405 12.5069C44.7587 13.7123 43.8764 14.633 42.7582 15.2691C41.6451 15.9 40.3935 16.2154 39.0035 16.2154C37.6031 16.2154 36.3464 15.8974 35.2333 15.2614C34.1203 14.6253 33.2406 13.7046 32.5943 12.4992C31.9479 11.2938 31.6248 9.83444 31.6248 8.12121C31.6248 6.40286 31.9479 4.94097 32.5943 3.73556C33.2406 2.53015 34.1203 1.61198 35.2333 0.981061C36.3464 0.345013 37.6031 0.0269885 39.0035 0.0269885C40.3935 0.0269885 41.6451 0.345013 42.7582 0.981061C43.8764 1.61198 44.7587 2.53015 45.405 3.73556C46.0564 4.94097 46.3821 6.40286 46.3821 8.12121ZM43.0044 8.12121C43.0044 7.00813 42.8377 6.06944 42.5043 5.30516C42.176 4.54088 41.7118 3.96125 41.1117 3.56629C40.5115 3.17132 39.8088 2.97384 39.0035 2.97384C38.1981 2.97384 37.4954 3.17132 36.8953 3.56629C36.2951 3.96125 35.8284 4.54088 35.4949 5.30516C35.1667 6.06944 35.0025 7.00813 35.0025 8.12121C35.0025 9.2343 35.1667 10.173 35.4949 10.9373C35.8284 11.7015 36.2951 12.2812 36.8953 12.6761C37.4954 13.0711 38.1981 13.2686 39.0035 13.2686C39.8088 13.2686 40.5115 13.0711 41.1117 12.6761C41.7118 12.2812 42.176 11.7015 42.5043 10.9373C42.8377 10.173 43.0044 9.2343 43.0044 8.12121ZM58.5831 0.242424H61.9147V10.4756C61.9147 11.6246 61.6402 12.63 61.0914 13.4917C60.5477 14.3535 59.7859 15.0254 58.8062 15.5076C57.8265 15.9846 56.6852 16.2231 55.3823 16.2231C54.0743 16.2231 52.9305 15.9846 51.9508 15.5076C50.971 15.0254 50.2093 14.3535 49.6656 13.4917C49.1219 12.63 48.85 11.6246 48.85 10.4756V0.242424H52.1816V10.1909C52.1816 10.7911 52.3124 11.3245 52.574 11.7913C52.8407 12.2581 53.2152 12.6248 53.6973 12.8916C54.1795 13.1583 54.7412 13.2917 55.3823 13.2917C56.0286 13.2917 56.5903 13.1583 57.0674 12.8916C57.5495 12.6248 57.9214 12.2581 58.183 11.7913C58.4497 11.3245 58.5831 10.7911 58.5831 10.1909V0.242424ZM64.0555 2.98923V0.242424H76.9971V2.98923H72.1729V16H68.8798V2.98923H64.0555Z" fill="white"/>
</svg>
