<svg width="94" height="17" viewBox="0 0 94 17" fill="none" xmlns="http://www.w3.org/2000/svg">
<path d="M4.41891 16H0.848835L6.28858 0.242424H10.5819L16.014 16H12.4439L8.4968 3.84328H8.37369L4.41891 16ZM4.19578 9.80623H12.6285V12.4068H4.19578V9.80623ZM27.6436 0.242424H30.9752V10.4756C30.9752 11.6246 30.7008 12.63 30.1519 13.4917C29.6082 14.3535 28.8465 15.0254 27.8668 15.5076C26.887 15.9846 25.7458 16.2231 24.4429 16.2231C23.1349 16.2231 21.991 15.9846 21.0113 15.5076C20.0316 15.0254 19.2699 14.3535 18.7261 13.4917C18.1824 12.63 17.9106 11.6246 17.9106 10.4756V0.242424H21.2421V10.1909C21.2421 10.7911 21.3729 11.3245 21.6345 11.7913C21.9013 12.2581 22.2757 12.6248 22.7579 12.8916C23.24 13.1583 23.8017 13.2917 24.4429 13.2917C25.0892 13.2917 25.6509 13.1583 26.1279 12.8916C26.6101 12.6248 26.9819 12.2581 27.2435 11.7913C27.5103 11.3245 27.6436 10.7911 27.6436 10.1909V0.242424ZM33.1161 2.98923V0.242424H46.0576V2.98923H41.2334V16H37.9403V2.98923H33.1161ZM48.1889 16V0.242424H51.5204V6.74396H58.2836V0.242424H61.6074V16H58.2836V9.49077H51.5204V16H48.1889ZM78.8346 8.12121C78.8346 9.83957 78.5089 11.3015 77.8574 12.5069C77.2111 13.7123 76.3289 14.633 75.2107 15.2691C74.0976 15.9 72.846 16.2154 71.4559 16.2154C70.0556 16.2154 68.7989 15.8974 67.6858 15.2614C66.5727 14.6253 65.693 13.7046 65.0467 12.4992C64.4004 11.2938 64.0773 9.83444 64.0773 8.12121C64.0773 6.40286 64.4004 4.94097 65.0467 3.73556C65.693 2.53015 66.5727 1.61198 67.6858 0.981061C68.7989 0.345013 70.0556 0.0269885 71.4559 0.0269885C72.846 0.0269885 74.0976 0.345013 75.2107 0.981061C76.3289 1.61198 77.2111 2.53015 77.8574 3.73556C78.5089 4.94097 78.8346 6.40286 78.8346 8.12121ZM75.4569 8.12121C75.4569 7.00813 75.2902 6.06944 74.9568 5.30516C74.6285 4.54088 74.1643 3.96125 73.5641 3.56629C72.964 3.17132 72.2613 2.97384 71.4559 2.97384C70.6506 2.97384 69.9479 3.17132 69.3477 3.56629C68.7476 3.96125 68.2808 4.54088 67.9474 5.30516C67.6191 6.06944 67.455 7.00813 67.455 8.12121C67.455 9.2343 67.6191 10.173 67.9474 10.9373C68.2808 11.7015 68.7476 12.2812 69.3477 12.6761C69.9479 13.0711 70.6506 13.2686 71.4559 13.2686C72.2613 13.2686 72.964 13.0711 73.5641 12.6761C74.1643 12.2812 74.6285 11.7015 74.9568 10.9373C75.2902 10.173 75.4569 9.2343 75.4569 8.12121ZM81.3025 16V0.242424H87.5193C88.7094 0.242424 89.725 0.455295 90.5662 0.881037C91.4126 1.30165 92.0563 1.89923 92.4974 2.67377C92.9437 3.44318 93.1668 4.34852 93.1668 5.3898C93.1668 6.4362 92.9411 7.33641 92.4898 8.09044C92.0384 8.83933 91.3844 9.41383 90.5278 9.81392C89.6763 10.214 88.6453 10.4141 87.4347 10.4141H83.2722V7.73651H86.8961C87.5322 7.73651 88.0605 7.64931 88.4811 7.47491C88.9017 7.30051 89.2146 7.0389 89.4198 6.6901C89.6301 6.3413 89.7353 5.90787 89.7353 5.3898C89.7353 4.8666 89.6301 4.42547 89.4198 4.06641C89.2146 3.70735 88.8992 3.43549 88.4734 3.25083C88.0528 3.06104 87.5219 2.96615 86.8807 2.96615H84.6341V16H81.3025ZM89.8122 8.82907L93.7285 16H90.0507L86.219 8.82907H89.8122Z" fill="white"/>
</svg>
