<svg width="469" height="101" viewBox="0 0 469 101" fill="none" xmlns="http://www.w3.org/2000/svg">
<path d="M0 65V0.689996H9.81V65H0ZM13.08 65V0.689996H22.89V65H13.08ZM26.16 65V0.689996H29.43V65H26.16ZM39.24 65V0.689996H42.51V65H39.24ZM45.78 65V0.689996H49.05V65H45.78ZM27.577 100.207C25.6877 100.207 24.0163 99.7347 22.563 98.79C21.037 97.8453 19.838 96.4283 18.966 94.539C18.094 92.577 17.658 90.1427 17.658 87.236C17.658 84.184 18.1303 81.677 19.075 79.715C20.0197 77.8257 21.2187 76.445 22.672 75.573C24.1253 74.7737 25.6877 74.374 27.359 74.374C29.1757 74.374 30.738 74.81 32.046 75.682C33.354 76.554 34.335 77.753 34.989 79.279L32.591 80.478L32.264 80.587L32.155 80.369V80.042C32.155 79.7513 31.9733 79.3517 31.61 78.843C31.0287 78.0437 30.3747 77.4623 29.648 77.099C28.9213 76.7357 28.1583 76.554 27.359 76.554C25.179 76.554 23.4713 77.4987 22.236 79.388C21.0733 81.2047 20.492 83.7843 20.492 87.127C20.492 89.1617 20.7827 91.0147 21.364 92.686C22.018 94.2847 22.8537 95.52 23.871 96.392C24.961 97.264 26.16 97.7 27.468 97.7C28.4853 97.7 29.43 97.4457 30.302 96.937C31.2467 96.3557 32.0097 95.5927 32.591 94.648L34.662 96.065C33.79 97.4457 32.809 98.463 31.719 99.117C30.5563 99.8437 29.1757 100.207 27.577 100.207ZM52.3711 65V0.689996H62.1811V65H52.3711ZM65.4511 65V0.689996H68.7211V65H65.4511ZM71.9911 65V0.689996H75.2611V65H71.9911ZM85.0711 65V0.689996H94.8811V65H85.0711ZM98.1511 65V0.689996H101.421V65H98.1511ZM70.4651 74.483H73.7351V74.81C73.5898 74.9553 73.4808 75.137 73.4081 75.355C73.4081 75.5003 73.4081 75.8273 73.4081 76.336V85.274H83.2181V74.483H86.5971V74.81C86.4518 74.9553 86.3428 75.137 86.2701 75.355C86.2701 75.5003 86.2701 75.8273 86.2701 76.336V99.771H83.2181V87.781H73.4081V99.771H70.4651V74.483ZM104.742 65V0.689996H114.552V65H104.742ZM117.822 65V0.689996H121.092V65H117.822ZM124.362 65V0.689996H134.172V65H124.362ZM137.442 65V0.689996H140.712V65H137.442ZM150.522 65V0.689996H153.792V65H150.522ZM130.902 100.207C127.996 100.207 125.779 99.0807 124.253 96.828C122.655 94.5753 121.855 91.378 121.855 87.236C121.855 83.2393 122.655 80.0783 124.253 77.753C125.852 75.5003 128.068 74.374 130.902 74.374C133.736 74.374 135.953 75.5003 137.551 77.753C139.15 80.0783 139.949 83.2393 139.949 87.236C139.949 91.378 139.15 94.5753 137.551 96.828C136.025 99.0807 133.809 100.207 130.902 100.207ZM130.902 97.7C132.864 97.7 134.354 96.828 135.371 95.084C136.461 93.2673 137.006 90.6513 137.006 87.236C137.006 84.0387 136.461 81.4953 135.371 79.606C134.281 77.7893 132.792 76.881 130.902 76.881C129.013 76.881 127.523 77.7893 126.433 79.606C125.343 81.4953 124.798 84.0387 124.798 87.236C124.798 90.6513 125.307 93.2673 126.324 95.084C127.414 96.828 128.94 97.7 130.902 97.7ZM157.113 65V0.689996H166.923V65H157.113ZM176.733 65V0.689996H186.543V65H176.733ZM189.813 65V0.689996H193.083V65H189.813ZM196.353 65V0.689996H199.623V65H196.353ZM202.893 65V0.689996H206.163V65H202.893ZM173.79 74.483H176.406L179.131 91.596L183.273 76.336H184.145L188.178 91.705L190.467 74.483H192.865L188.941 99.771H187.851L183.491 83.312L179.022 99.771H177.823L173.79 74.483ZM209.484 65V0.689996H219.294V65H209.484ZM222.564 65V0.689996H225.834V65H222.564ZM229.104 65V0.689996H232.374V65H229.104ZM235.644 65V0.689996H238.914V65H235.644ZM248.724 65V0.689996H258.534V65H248.724ZM232.265 87.127L230.194 89.307V99.771H227.251V74.483H230.63V74.81C230.485 74.9553 230.376 75.137 230.303 75.355C230.231 75.5003 230.194 75.8273 230.194 76.336V86.146L240.767 74.374C241.421 74.4467 242.112 74.483 242.838 74.483H243.928L234.336 85.383L244.582 99.771L240.985 99.88L232.265 87.127ZM261.855 65V0.689996H265.125V65H261.855ZM268.395 65V0.689996H278.205V65H268.395ZM281.475 65V0.689996H284.745V65H281.475ZM294.555 65V0.689996H304.365V65H294.555ZM307.635 65V0.689996H310.905V65H307.635ZM281.148 97.373H286.162V76.881H281.475V74.483H294.01V76.881H288.996V97.373H294.228V99.771H281.148V97.373ZM314.227 65V0.689996H317.497V65H314.227ZM320.767 65V0.689996H324.037V65H320.767ZM327.307 65V0.689996H337.117V65H327.307ZM346.927 65V0.689996H350.197V65H346.927ZM353.467 65V0.689996H363.277V65H353.467ZM332.43 74.483H338.316C340.423 74.483 342.058 74.7737 343.221 75.355C344.456 75.9363 345.51 76.8083 346.382 77.971C348.053 80.151 348.889 83.2393 348.889 87.236C348.743 91.378 347.799 94.5027 346.055 96.61C344.311 98.79 341.586 99.8437 337.88 99.771H332.43V74.483ZM337.662 97.591C343.257 97.591 346.055 94.212 346.055 87.454C346.055 84.0387 345.437 81.4227 344.202 79.606C342.894 77.7893 340.859 76.881 338.098 76.881H335.155V97.591H337.662ZM366.598 65V0.689996H376.408V65H366.598ZM379.678 65V0.689996H382.948V65H379.678ZM386.218 65V0.689996H389.488V65H386.218ZM399.298 65V0.689996H402.568V65H399.298ZM405.838 65V0.689996H415.648V65H405.838ZM396.791 92.359H388.616L386.109 99.771H383.275L392.54 74.047H392.867L402.241 99.771H399.298L396.791 92.359ZM396.028 90.179L392.758 80.587L389.379 90.179H396.028ZM418.969 65V0.689996H428.779V65H418.969ZM432.049 65V0.689996H435.319V65H432.049ZM438.589 65V0.689996H441.859V65H438.589ZM445.129 65V0.689996H454.939V65H445.129ZM464.749 65V0.689996H468.019V65H464.749ZM437.281 74.483H444.693C447.599 74.483 449.707 75.137 451.015 76.445C452.395 77.6803 453.086 79.4607 453.086 81.786C453.086 83.2393 452.613 84.62 451.669 85.928C450.724 87.236 449.489 88.108 447.963 88.544L453.849 99.771H450.688L445.02 88.653H440.115V99.771H437.281V74.483ZM445.02 86.146C446.764 86.146 448.072 85.7463 448.944 84.947C449.743 84.2203 450.143 83.1667 450.143 81.786C450.143 80.4053 449.743 79.279 448.944 78.407C448.072 77.6077 446.764 77.208 445.02 77.208H440.115V86.146H445.02Z" fill="url(#paint0_linear_2_11)"/>
<defs>
<linearGradient id="paint0_linear_2_11" x1="166.708" y1="176.917" x2="166.708" y2="73.2069" gradientUnits="userSpaceOnUse">
<stop stop-color="#695636"/>
<stop offset="1" stop-color="#FFE68C"/>
</linearGradient>
</defs>
</svg>
