<svg width="173" height="67" viewBox="0 0 173 67" fill="none" xmlns="http://www.w3.org/2000/svg">
<path d="M63.7011 25.5056V41.2632H60.3696V25.5056H63.7011ZM66.4421 41.2632V25.5056H72.659C73.8542 25.5056 74.8723 25.7338 75.7136 26.1904C76.5548 26.6418 77.196 27.2701 77.6371 28.0754C78.0834 28.8756 78.3065 29.7989 78.3065 30.8453C78.3065 31.8917 78.0808 32.815 77.6294 33.6152C77.178 34.4154 76.524 35.0386 75.6674 35.4849C74.8159 35.9311 73.7849 36.1543 72.5744 36.1543H68.6119V33.4844H72.0358C72.677 33.4844 73.2053 33.3741 73.6208 33.1535C74.0414 32.9279 74.3543 32.6175 74.5595 32.2226C74.7698 31.8225 74.8749 31.3634 74.8749 30.8453C74.8749 30.3221 74.7698 29.8656 74.5595 29.4758C74.3543 29.0808 74.0414 28.7756 73.6208 28.5602C73.2002 28.3396 72.6667 28.2293 72.0204 28.2293H69.7737V41.2632H66.4421ZM88.2011 41.2632H84.6311L90.0708 25.5056H94.3641L99.7962 41.2632H96.2261L92.279 29.1064H92.1559L88.2011 41.2632ZM87.978 35.0694H96.4108V37.67H87.978V35.0694ZM105.436 41.4555C104.538 41.4555 103.725 41.2247 102.997 40.763C102.274 40.2963 101.699 39.6115 101.273 38.7087C100.853 37.8008 100.643 36.6877 100.643 35.3695C100.643 34.0153 100.861 32.8894 101.297 31.9917C101.733 31.089 102.312 30.4144 103.035 29.9682C103.764 29.5168 104.561 29.2911 105.428 29.2911C106.09 29.2911 106.641 29.4039 107.083 29.6296C107.529 29.8502 107.888 30.1272 108.16 30.4606C108.437 30.7889 108.647 31.112 108.791 31.4301H108.891V25.5056H112.161V41.2632H108.929V39.3704H108.791C108.637 39.6987 108.419 40.0244 108.137 40.3476C107.86 40.6656 107.498 40.9297 107.052 41.1401C106.611 41.3504 106.072 41.4555 105.436 41.4555ZM106.475 38.8472C107.003 38.8472 107.449 38.7036 107.813 38.4163C108.183 38.124 108.465 37.7162 108.66 37.193C108.86 36.6698 108.96 36.0568 108.96 35.3541C108.96 34.6513 108.862 34.0409 108.668 33.5229C108.473 33.0048 108.19 32.6047 107.821 32.3226C107.452 32.0405 107.003 31.8994 106.475 31.8994C105.936 31.8994 105.482 32.0456 105.113 32.338C104.744 32.6303 104.464 33.0356 104.274 33.5536C104.084 34.0717 103.989 34.6719 103.989 35.3541C103.989 36.0414 104.084 36.6492 104.274 37.1776C104.469 37.7008 104.749 38.1111 105.113 38.4086C105.482 38.701 105.936 38.8472 106.475 38.8472ZM119.21 41.4555C118.313 41.4555 117.5 41.2247 116.771 40.763C116.048 40.2963 115.474 39.6115 115.048 38.7087C114.627 37.8008 114.417 36.6877 114.417 35.3695C114.417 34.0153 114.635 32.8894 115.071 31.9917C115.507 31.089 116.087 30.4144 116.81 29.9682C117.538 29.5168 118.336 29.2911 119.203 29.2911C119.864 29.2911 120.416 29.4039 120.857 29.6296C121.303 29.8502 121.662 30.1272 121.934 30.4606C122.211 30.7889 122.421 31.112 122.565 31.4301H122.665V25.5056H125.935V41.2632H122.704V39.3704H122.565C122.411 39.6987 122.193 40.0244 121.911 40.3476C121.634 40.6656 121.272 40.9297 120.826 41.1401C120.385 41.3504 119.846 41.4555 119.21 41.4555ZM120.249 38.8472C120.777 38.8472 121.224 38.7036 121.588 38.4163C121.957 38.124 122.239 37.7162 122.434 37.193C122.634 36.6698 122.734 36.0568 122.734 35.3541C122.734 34.6513 122.637 34.0409 122.442 33.5229C122.247 33.0048 121.965 32.6047 121.596 32.3226C121.226 32.0405 120.777 31.8994 120.249 31.8994C119.711 31.8994 119.257 32.0456 118.887 32.338C118.518 32.6303 118.238 33.0356 118.049 33.5536C117.859 34.0717 117.764 34.6719 117.764 35.3541C117.764 36.0414 117.859 36.6492 118.049 37.1776C118.244 37.7008 118.523 38.1111 118.887 38.4086C119.257 38.701 119.711 38.8472 120.249 38.8472ZM128.63 41.2632V29.445H131.808V31.507H131.931C132.146 30.7735 132.508 30.2195 133.016 29.8451C133.523 29.4655 134.108 29.2757 134.77 29.2757C134.934 29.2757 135.111 29.286 135.301 29.3065C135.491 29.327 135.657 29.3552 135.801 29.3911V32.2995C135.647 32.2533 135.434 32.2123 135.162 32.1764C134.89 32.1405 134.642 32.1225 134.416 32.1225C133.934 32.1225 133.503 32.2277 133.123 32.438C132.749 32.6432 132.451 32.9304 132.231 33.2997C132.015 33.6691 131.908 34.0948 131.908 34.577V41.2632H128.63ZM142.331 41.494C141.116 41.494 140.069 41.2478 139.192 40.7553C138.32 40.2578 137.648 39.5551 137.176 38.6472C136.704 37.7341 136.468 36.6544 136.468 35.4079C136.468 34.1923 136.704 33.1253 137.176 32.2072C137.648 31.289 138.312 30.5735 139.169 30.0605C140.031 29.5476 141.041 29.2911 142.2 29.2911C142.98 29.2911 143.706 29.4168 144.378 29.6681C145.055 29.9143 145.645 30.2862 146.148 30.7838C146.655 31.2813 147.05 31.9071 147.332 32.6611C147.615 33.41 147.756 34.2872 147.756 35.2925V36.1927H137.776V34.1615H144.67C144.67 33.6896 144.568 33.2715 144.363 32.9073C144.157 32.5431 143.873 32.2585 143.508 32.0533C143.149 31.843 142.731 31.7378 142.254 31.7378C141.757 31.7378 141.316 31.8532 140.931 32.0841C140.551 32.3098 140.254 32.615 140.038 32.9997C139.823 33.3792 139.713 33.8024 139.708 34.2692V36.2004C139.708 36.7852 139.815 37.2904 140.031 37.7162C140.251 38.1419 140.562 38.4702 140.962 38.701C141.362 38.9318 141.836 39.0473 142.385 39.0473C142.749 39.0473 143.083 38.996 143.385 38.8934C143.688 38.7908 143.947 38.6369 144.162 38.4317C144.378 38.2265 144.542 37.9752 144.655 37.6777L147.686 37.8777C147.532 38.6061 147.217 39.2422 146.74 39.7859C146.268 40.3245 145.658 40.7451 144.909 41.0477C144.165 41.3452 143.306 41.494 142.331 41.494ZM159.728 32.815L156.727 32.9997C156.676 32.7432 156.565 32.5124 156.396 32.3072C156.227 32.0969 156.004 31.9302 155.727 31.8071C155.455 31.6788 155.129 31.6147 154.75 31.6147C154.242 31.6147 153.813 31.7224 153.465 31.9379C153.116 32.1482 152.941 32.4303 152.941 32.7842C152.941 33.0663 153.054 33.3049 153.28 33.4998C153.506 33.6947 153.893 33.8511 154.442 33.9691L156.581 34.4C157.73 34.636 158.586 35.0155 159.151 35.5387C159.715 36.0619 159.997 36.7493 159.997 37.6008C159.997 38.3753 159.769 39.0549 159.312 39.6397C158.861 40.2245 158.24 40.681 157.45 41.0093C156.665 41.3324 155.76 41.494 154.734 41.494C153.17 41.494 151.923 41.1683 150.995 40.5168C150.072 39.8603 149.53 38.9677 149.371 37.8393L152.595 37.67C152.693 38.147 152.929 38.5112 153.303 38.7626C153.678 39.0088 154.157 39.1319 154.742 39.1319C155.316 39.1319 155.778 39.0216 156.127 38.801C156.481 38.5753 156.66 38.2855 156.665 37.9316C156.66 37.6341 156.535 37.3904 156.288 37.2007C156.042 37.0057 155.663 36.857 155.15 36.7544L153.103 36.3466C151.949 36.1158 151.09 35.7157 150.526 35.1463C149.966 34.577 149.687 33.8511 149.687 32.9689C149.687 32.2097 149.892 31.5557 150.302 31.0069C150.718 30.458 151.3 30.0349 152.049 29.7374C152.803 29.4398 153.685 29.2911 154.696 29.2911C156.188 29.2911 157.363 29.6066 158.22 30.2375C159.081 30.8684 159.584 31.7276 159.728 32.815ZM171.894 32.815L168.893 32.9997C168.842 32.7432 168.732 32.5124 168.562 32.3072C168.393 32.0969 168.17 31.9302 167.893 31.8071C167.621 31.6788 167.296 31.6147 166.916 31.6147C166.408 31.6147 165.98 31.7224 165.631 31.9379C165.282 32.1482 165.108 32.4303 165.108 32.7842C165.108 33.0663 165.221 33.3049 165.446 33.4998C165.672 33.6947 166.059 33.8511 166.608 33.9691L168.747 34.4C169.896 34.636 170.753 35.0155 171.317 35.5387C171.881 36.0619 172.163 36.7493 172.163 37.6008C172.163 38.3753 171.935 39.0549 171.479 39.6397C171.027 40.2245 170.406 40.681 169.617 41.0093C168.832 41.3324 167.926 41.494 166.901 41.494C165.336 41.494 164.09 41.1683 163.161 40.5168C162.238 39.8603 161.697 38.9677 161.538 37.8393L164.762 37.67C164.859 38.147 165.095 38.5112 165.469 38.7626C165.844 39.0088 166.323 39.1319 166.908 39.1319C167.483 39.1319 167.944 39.0216 168.293 38.801C168.647 38.5753 168.827 38.2855 168.832 37.9316C168.827 37.6341 168.701 37.3904 168.455 37.2007C168.209 37.0057 167.829 36.857 167.316 36.7544L165.269 36.3466C164.115 36.1158 163.256 35.7157 162.692 35.1463C162.133 34.577 161.853 33.8511 161.853 32.9689C161.853 32.2097 162.058 31.5557 162.469 31.0069C162.884 30.458 163.466 30.0349 164.215 29.7374C164.969 29.4398 165.852 29.2911 166.862 29.2911C168.355 29.2911 169.529 29.6066 170.386 30.2375C171.248 30.8684 171.75 31.7276 171.894 32.815Z" fill="white"/>
<circle cx="24" cy="32" r="24" fill="url(#paint0_linear_2_45)"/>
<path d="M20.4321 44.1061V19.9462H26.5403V44.1061H20.4321ZM11.4063 35.0803V28.9721H35.5662V35.0803H11.4063Z" fill="white"/>
<defs>
<linearGradient id="paint0_linear_2_45" x1="24" y1="8" x2="24" y2="56" gradientUnits="userSpaceOnUse">
<stop stop-color="#FFE68C"/>
<stop offset="1" stop-color="#695636"/>
</linearGradient>
</defs>
</svg>
